<svg width="110" height="150" viewBox="0 0 110 150" fill="none" xmlns="http://www.w3.org/2000/svg">

  <path
    d="M79.9587 75.7743C80.2048 79.1078 82.57 79.3618 85.2289 85.6796C88.618 93.7515 89.4513 101.593 91.2768 110.213C93.5468 120.975 99.9123 121.737 102.77 121.15C107.913 120.094 110.286 113.935 108.889 107.316C103.738 82.8937 93.9675 71.3454 84.5304 71.4327C82.7684 71.4486 79.7206 72.528 79.9587 75.7743Z"
    fill="#E4E8EF" />
  <path
    d="M102.762 121.15C101.809 121.348 100.46 121.388 99.0073 120.959C103.65 119.499 105.738 113.618 104.412 107.316C99.7534 85.2589 91.3402 73.7027 82.8 71.7344C83.4112 71.528 84.0223 71.4327 84.5224 71.4327C93.9594 71.3454 103.722 82.8937 108.881 107.316C110.286 113.935 107.913 120.094 102.762 121.15Z"
    fill="#D0D7E2" />
  <path
    d="M30.051 75.8696C29.8049 79.2031 27.4397 79.4571 24.7808 85.7749C21.9474 92.5134 20.8997 99.0852 19.5742 106.094C19.3123 107.483 19.0345 108.887 18.7408 110.308C16.4708 121.071 10.1054 121.833 7.24809 121.245C2.10493 120.19 -0.268221 114.031 1.12869 107.411C5.72419 85.6241 13.9945 74.0838 22.4236 71.909C23.4395 71.6471 24.4634 71.5201 25.4872 71.5281C27.2413 71.5519 30.2891 72.6313 30.051 75.8696Z"
    fill="#E4E8EF" />
  <path
    d="M30.051 75.8696C29.805 79.2031 27.4398 79.4571 24.7809 85.7749C21.9474 92.5134 20.8997 99.0852 19.5742 106.094C19.2409 104.967 18.9393 103.808 18.6615 102.625C18.5424 102.133 18.4392 101.633 18.3361 101.133C17.3122 96.2041 16.7566 90.7514 16.7566 84.7987C16.7566 79.7428 18.7805 75.3775 22.4236 71.909C23.4395 71.6471 24.4634 71.5201 25.4873 71.5281C27.2413 71.5519 30.2891 72.6313 30.051 75.8696Z"
    fill="#D0D7E2" />
  <path
    d="M90.1417 84.7986C90.1417 90.7513 89.5861 96.204 88.5622 101.133C88.4591 101.633 88.3479 102.133 88.2368 102.625C83.5461 122.785 70.712 133.698 55.6238 133.698C40.5357 133.698 27.7016 122.785 23.0108 102.625C22.8918 102.133 22.7886 101.633 22.6854 101.133C21.6615 96.204 21.106 90.7513 21.106 84.7986C21.106 71.5518 34.956 63.0671 55.6318 63.0671C76.3076 63.0671 90.1417 71.5518 90.1417 84.7986Z"
    fill="#E4E8EF" />
  <path
    d="M90.1417 84.7986C90.1417 90.7513 89.5861 96.204 88.5623 101.133C88.4591 101.633 88.348 102.133 88.2369 102.625C83.5461 122.785 70.712 133.698 55.6239 133.698C44.2502 133.698 34.1623 127.499 27.8762 115.816C32.2098 119.332 37.0196 122.126 42.2739 123.666C50.7267 126.134 60.4257 124.928 67.2118 119.062C71.0533 115.745 73.7043 111.229 75.4583 106.284C75.625 105.808 75.7917 105.331 75.9425 104.847C76.7362 102.355 77.3077 99.7677 77.7124 97.1961C78.4585 92.3942 78.6728 87.4178 77.5061 82.7111C76.3393 78.0045 73.6567 73.5757 69.6564 71.1708C67.1404 69.6548 64.2434 69.004 61.394 68.4643C53.3063 66.9245 45.0994 66.0911 36.8847 65.9721C42.1151 64.0831 48.4647 63.0671 55.6318 63.0671C76.2838 63.0671 90.1417 71.5518 90.1417 84.7986Z"
    fill="#D0D7E2" />
  <path
    d="M41.5754 58.9558V67.2499C41.5754 71.647 47.8615 75.2107 55.6159 75.2107C63.3704 75.2107 69.6564 71.647 69.6564 67.2499V58.9558H41.5754Z"
    fill="#D3D9E2" />
  <path
    d="M55.6159 22.2156C63.8349 22.2156 70.4978 17.4077 70.4978 11.4769C70.4978 5.54605 63.8349 0.738159 55.6159 0.738159C47.3969 0.738159 40.7341 5.54605 40.7341 11.4769C40.7341 17.4077 47.3969 22.2156 55.6159 22.2156Z"
    fill="#D3D9E2" />
  <path
    d="M14.0977 46.3043C14.0977 51.3681 16.8756 56.035 21.3282 58.4478C26.9952 61.5115 37.0672 64.3529 54.9254 64.3529C72.7836 64.3529 82.8635 61.5115 88.5226 58.4478C92.9832 56.035 95.7532 51.376 95.7532 46.3043V24.0808C95.7532 19.017 92.9753 14.35 88.5226 11.9372C82.8556 8.87354 72.7836 6.0321 54.9254 6.0321C37.0672 6.0321 26.9873 8.87354 21.3282 11.9372C16.8677 14.35 14.0977 19.009 14.0977 24.0808V46.3043Z"
    fill="#E4E8EF" />
  <path
    d="M95.5547 23.811V46.0345C95.5547 51.0983 92.7768 55.7652 88.3242 58.1781C82.6572 61.2417 72.5852 64.0832 54.727 64.0832C36.8609 64.0832 26.7888 61.2417 21.1218 58.1781C18.8677 56.9637 17.0502 55.17 15.7961 53.0429C23.1537 57.5352 32.3527 58.7972 41.0992 58.9003C47.2503 58.9718 53.5523 58.5352 59.2114 56.1065C69.4818 51.6936 76.2917 40.6612 76.4425 29.4859C76.5378 22.1681 73.9662 12.6516 69.3627 6.53223C78.4823 7.57991 84.443 9.57209 88.3242 11.6754C92.7847 14.0803 95.5547 18.7393 95.5547 23.811Z"
    fill="#D0D7E2" />
  <path
    d="M55.616 60.3289C37.7737 60.3289 28.6144 57.4001 24.0745 54.9476C21.0108 53.2888 19.106 50.0981 19.106 46.6059V29.5572C19.106 26.0729 21.0108 22.8743 24.0745 21.2155C28.6144 18.763 37.7737 15.8342 55.616 15.8342C73.4583 15.8342 82.6176 18.763 87.1575 21.2155C90.2212 22.8743 92.1261 26.065 92.1261 29.5572V46.6059C92.1261 50.0902 90.2212 53.2888 87.1575 54.9476C82.6176 57.4001 73.4583 60.3289 55.616 60.3289Z"
    fill="#1F4760" />
  <path
    d="M92.1259 29.5573V46.6059C92.1259 50.0902 90.2211 53.2888 87.1574 54.9477C82.6175 57.4081 73.4582 60.3289 55.6159 60.3289C37.7736 60.3289 28.6143 57.4002 24.0744 54.9477C21.1298 53.3523 19.2566 50.3363 19.1138 47.0107C29.7572 53.5984 45.0915 56.4874 57.1477 55.3366C62.8544 54.7889 68.8548 53.0904 72.4978 48.7727C74.4027 46.5186 75.498 43.7248 76.0139 40.8357C76.133 40.1531 76.2282 39.4706 76.2838 38.788C76.4822 36.4942 76.3711 34.1845 76.133 31.8908C75.998 30.597 75.8234 29.3033 75.6488 28.0175C75.2281 25.0253 74.7678 21.9934 73.5455 19.2154C73.1963 18.4138 72.7677 17.636 72.2756 16.8978C79.6967 17.9693 84.3239 19.6916 87.1574 21.2235C90.229 22.8744 92.1259 26.073 92.1259 29.5573Z"
    fill="#153747" />
  <path
    d="M45.0915 38.5975C45.0915 42.6057 41.8453 40.6056 37.8372 40.6056C33.829 40.6056 30.5828 42.5978 30.5828 38.5975C30.5828 34.5894 33.829 31.3431 37.8372 31.3431C41.8453 31.3431 45.0915 34.5894 45.0915 38.5975Z"
    fill="#69F2F9" />
  <path
    d="M76.2918 38.7801C76.2362 39.4627 76.141 40.1532 76.0219 40.8278C75.2044 40.7167 74.3234 40.6056 73.3948 40.6056C69.3866 40.6056 66.1404 42.5978 66.1404 38.5896C66.1404 34.5814 69.3866 31.3352 73.3948 31.3352C74.3631 31.3352 75.2917 31.5257 76.141 31.8749C76.3791 34.1846 76.4902 36.4863 76.2918 38.7801Z"
    fill="#69F2F9" />
  <path
    d="M80.6412 38.5975C80.6412 41.677 78.7204 41.2088 76.0139 40.8278C76.133 40.1452 76.2282 39.4626 76.2838 38.78C76.4822 36.4863 76.3711 34.1766 76.133 31.8828C78.7839 32.9622 80.6412 35.5656 80.6412 38.5975Z"
    fill="#4AD8D8" />
  <path
    d="M60.0605 47.614C60.0605 48.8442 59.5605 49.9474 58.7589 50.757C57.9573 51.5666 56.8461 52.0587 55.6158 52.0587C53.1633 52.0587 51.1711 50.0665 51.1711 47.614C51.1711 47.4393 51.2426 47.2806 51.3537 47.1616C51.4648 47.0504 51.6315 46.979 51.8061 46.979H59.4256C59.7748 46.979 60.0605 47.2568 60.0605 47.614Z"
    fill="#69F2F9" />
  <path
    d="M25.7014 15.7153C25.9951 15.5883 26.2887 15.4692 26.5903 15.3581C26.4792 15.3978 26.376 15.4375 26.2649 15.4772C27.8999 14.8819 29.5905 14.4136 31.289 14.0247C33.1304 13.604 34.9877 13.3024 36.8608 13.0485C38.091 12.8818 39.3292 12.7389 40.5673 12.6119C40.742 12.5802 40.9007 12.5087 41.0356 12.3976C41.1864 12.3103 41.3055 12.1913 41.4007 12.0405C41.5039 11.8897 41.5674 11.7309 41.5833 11.5484C41.6309 11.3738 41.6309 11.1912 41.5833 11.0166C41.496 10.6832 41.3055 10.3658 41.0039 10.1832C40.9007 10.1356 40.7975 10.08 40.6943 10.0324C40.4562 9.95304 40.2261 9.94511 39.98 10.0007C38.8133 10.1277 37.6465 10.2546 36.4877 10.4134C35.4559 10.5483 34.4321 10.7071 33.4082 10.8817C32.4637 11.0483 31.5271 11.2309 30.5985 11.4452C29.7175 11.6516 28.8365 11.8738 27.9634 12.1357C26.9316 12.4373 25.8919 12.7707 24.8918 13.1755C24.749 13.231 24.6061 13.2945 24.4632 13.358C24.3045 13.4374 24.1696 13.5406 24.0664 13.6834C23.9394 13.8104 23.8521 13.9533 23.8045 14.1279C23.741 14.3025 23.7251 14.4771 23.7568 14.6597C23.7568 14.8422 23.8045 15.0089 23.8918 15.1676C24.0584 15.4613 24.3204 15.7312 24.6617 15.8264C24.7807 15.8502 24.8998 15.874 25.0188 15.8899C25.2649 15.874 25.4871 15.8264 25.7014 15.7153Z"
    fill="white" />
  <path
    d="M21.0662 19.0408C21.3678 18.6995 21.6853 18.3741 22.0186 18.0725C22.1536 17.9614 22.2568 17.8185 22.3202 17.6518C22.4155 17.4931 22.4552 17.3264 22.4631 17.1439C22.479 16.9613 22.4472 16.7867 22.3758 16.62C22.3282 16.4533 22.2409 16.3025 22.1218 16.1755C22.0345 16.1041 21.9472 16.0247 21.8599 15.9533C21.6535 15.8184 21.4313 15.747 21.1932 15.739C21.0741 15.747 20.9551 15.7628 20.836 15.7708C20.6059 15.8263 20.3995 15.9295 20.2249 16.0882C19.8915 16.3978 19.5661 16.7153 19.2724 17.0566C19.1375 17.1677 19.0343 17.3105 18.9708 17.4772C18.8756 17.6359 18.8359 17.8026 18.828 17.9852C18.8121 18.1677 18.8439 18.3423 18.9153 18.509C18.9629 18.6757 19.0502 18.8265 19.1693 18.9535C19.2566 19.0249 19.3439 19.1043 19.4312 19.1757C19.6375 19.3107 19.8598 19.3821 20.0979 19.39C20.217 19.3821 20.336 19.3662 20.4551 19.3583C20.6852 19.3027 20.8916 19.1995 21.0662 19.0408Z"
    fill="white" />
  <path
    d="M75.9267 104.847C80.8 103.744 85.4352 102.244 88.5623 101.133C88.4591 101.633 88.348 102.133 88.2369 102.625C84.9351 103.768 80.2761 105.244 75.4504 106.284L75.9267 104.847Z"
    fill="#3AB1BA" />
  <path
    d="M95.0388 46.606L97.2532 46.2647C100.825 45.717 103.46 42.6375 103.46 39.0262V31.9623C103.46 28.3509 100.825 25.2714 97.2532 24.7237L95.0388 24.3824V46.606Z"
    fill="#B7C0CE" />
  <path
    d="M14.9707 46.606L12.7563 46.2647C9.18464 45.717 6.54956 42.6375 6.54956 39.0262V31.9623C6.54956 28.3509 9.18464 25.2714 12.7563 24.7237L14.9707 24.3824V46.606Z"
    fill="#D3D9E2" />
  <path
    d="M75.9266 104.847C75.7758 105.331 75.6091 105.808 75.4425 106.284C74.3868 106.514 73.3154 106.72 72.2518 106.903V110.784L71.7438 110.903C71.6724 110.919 64.3466 112.57 55.608 112.57C46.8694 112.57 39.5436 110.919 39.4721 110.903L38.9642 110.784V106.903C33.0591 105.903 27.0111 104.03 22.987 102.633C22.8759 102.141 22.7648 101.641 22.6616 101.141C26.7253 102.577 33.3448 104.697 39.7182 105.712L40.2658 105.8V109.744C42.0516 110.11 48.3298 111.268 55.608 111.268C62.8941 111.268 69.1643 110.102 70.9501 109.744V105.792L71.4978 105.705C72.9741 105.466 74.4662 105.173 75.9266 104.847Z"
    fill="#4AD8D8" />
  <path
    d="M109.587 107.173C108.325 101.212 106.754 95.8151 104.897 91.1323C103.135 86.6796 101.111 82.854 98.8883 79.7665C94.6261 73.8456 89.7052 70.7184 84.6335 70.7184C84.5938 70.7184 84.5541 70.7184 84.5144 70.7184C84.4192 70.7184 84.3239 70.7263 84.2207 70.7263C80.8714 67.8214 76.2997 65.5673 70.8787 64.1466C72.8312 63.9005 74.6884 63.5989 76.4425 63.2418C81.4031 62.2496 85.5859 60.8448 88.8718 59.0669C93.3245 56.6541 96.1738 52.1221 96.4516 47.098L97.3564 46.9551C99.2534 46.6614 100.984 45.7011 102.238 44.2407C103.484 42.7882 104.174 40.923 104.174 39.0102V31.9463C104.174 30.0255 103.484 28.1683 102.238 26.7158C100.992 25.2634 99.2534 24.2951 97.3564 24.0014L96.4754 23.8665C96.404 18.6043 93.507 13.8024 88.8718 11.2943C85.5859 9.51642 81.4111 8.11158 76.4425 7.11946C74.6488 6.7623 72.7439 6.45275 70.7438 6.19877C70.1564 4.18278 68.9341 2.77 66.9261 1.77788C64.4894 0.579398 60.7908 0 55.6159 0C50.5045 0 46.8376 0.563524 44.4089 1.73026C42.3929 2.69857 41.1468 4.07166 40.5357 6.0321C38.0038 6.30989 35.6306 6.67499 33.4162 7.11946C28.4556 8.11158 24.2728 9.51642 20.9869 11.2943C16.3517 13.8024 13.4468 18.6122 13.3833 23.8823L12.6452 23.9935C10.7482 24.2871 9.01797 25.2475 7.76393 26.7079C6.51783 28.1604 5.82731 30.0255 5.82731 31.9384V39.0023C5.82731 40.923 6.51783 42.7803 7.76393 44.2327C9.01003 45.6852 10.7482 46.6535 12.6452 46.9472L13.4071 47.0662C13.677 52.0983 16.5263 56.6382 20.9869 59.051C24.2728 60.8289 28.4477 62.2338 33.4162 63.2259C35.4481 63.6307 37.6149 63.972 39.9166 64.2418C34.5353 65.7022 30.0192 68.0039 26.7333 70.9406C26.3126 70.8454 25.884 70.7978 25.4792 70.7898C24.3998 70.7819 23.3124 70.9168 22.233 71.1946C17.7169 72.3613 13.3912 76.06 9.72436 81.9016C5.77175 88.1956 2.63665 96.7199 0.414298 107.236C-0.474642 111.443 0.0809446 115.483 1.94613 118.324C3.20017 120.237 4.97805 121.483 7.08929 121.912C7.44645 121.983 8.00998 122.071 8.71637 122.071C10.018 122.071 11.788 121.777 13.5976 120.594C16.439 118.737 18.3995 115.308 19.4313 110.419C19.7011 109.157 19.9631 107.816 20.2726 106.189C20.4075 105.474 20.5425 104.776 20.6694 104.07C20.979 102.427 21.2726 100.839 21.5901 99.2677C21.7092 99.9344 21.8362 100.593 21.9711 101.236C22.0743 101.728 22.1854 102.236 22.3045 102.744C23.4712 107.736 25.1538 112.292 27.3286 116.285C29.4319 120.158 31.9876 123.491 34.9242 126.206C40.7103 131.547 47.8615 134.373 55.6159 134.373C63.3703 134.373 70.5215 131.547 76.3076 126.206C79.2443 123.491 81.8 120.158 83.9033 116.285C86.0701 112.3 87.7606 107.744 88.9274 102.744C88.9591 102.601 88.9909 102.458 89.0226 102.315C89.1258 102.855 89.229 103.403 89.3322 103.958C89.7131 106.022 90.1179 108.149 90.5703 110.316C91.6021 115.205 93.5626 118.626 96.404 120.491C98.2136 121.674 99.9836 121.967 101.285 121.967C101.984 121.967 102.547 121.88 102.912 121.809C105.024 121.372 106.801 120.134 108.055 118.221C109.913 115.419 110.476 111.379 109.587 107.173ZM42.2897 64.5196C46.1789 64.8847 50.4013 65.0673 54.9333 65.0673C60.0051 65.0673 64.6879 64.8371 68.95 64.3767V67.2499C68.95 69.1072 67.6166 70.8851 65.1958 72.2582C62.6481 73.7027 59.251 74.4964 55.6159 74.4964C51.9887 74.4964 48.5838 73.7027 46.036 72.2582C43.6152 70.8851 42.2818 69.1072 42.2818 67.2499V64.5196H42.2897ZM101.15 27.5254C102.174 28.7477 102.746 30.2954 102.746 31.9066V39.0896C102.746 40.6928 102.182 42.2485 101.15 43.4708C100.119 44.6931 98.6978 45.4947 97.1421 45.7407L96.4834 45.8439V25.1523L97.1421 25.2554C98.6978 25.5015 100.126 26.3031 101.15 27.5254ZM45.028 3.03986C47.2662 1.96837 50.7267 1.45246 55.6159 1.45246C65.4022 1.45246 68.2039 3.54782 69.1802 6.04003C64.8625 5.56381 60.0924 5.3257 54.9333 5.3257C50.3378 5.3257 46.0519 5.51619 42.1231 5.88923C42.6628 4.62725 43.5914 3.73037 45.028 3.03986ZM8.85923 43.3279C7.83536 42.1294 7.2639 40.6055 7.2639 39.0261V31.9622C7.2639 30.3827 7.82742 28.8588 8.85923 27.6603C9.89104 26.4619 11.3118 25.6682 12.8674 25.43L13.3833 25.3507V45.6376L12.8674 45.5582C11.3118 45.3201 9.8831 44.5264 8.85923 43.3279ZM21.6695 57.8208C17.4391 55.535 14.812 51.122 14.812 46.3043V24.0808C14.812 19.263 17.4391 14.858 21.6695 12.5642C24.8284 10.8578 28.8763 9.50055 33.694 8.53224C39.6229 7.3417 46.7662 6.74642 54.9254 6.74642C63.0846 6.74642 70.2279 7.34963 76.1568 8.53224C80.9825 9.50055 85.0224 10.8498 88.1813 12.5642C92.4117 14.8501 95.0388 19.263 95.0388 24.0808V46.3043C95.0388 51.122 92.4117 55.527 88.1813 57.8208C85.0224 59.5273 80.9745 60.8845 76.1568 61.8528C70.2279 63.0433 63.0846 63.6386 54.9254 63.6386C46.7662 63.6386 39.6229 63.0354 33.694 61.8528C28.8763 60.8845 24.8284 59.5273 21.6695 57.8208ZM19.2725 103.847C19.1455 104.546 19.0106 105.252 18.8757 105.959C18.5741 107.57 18.3042 108.903 18.0423 110.157C17.0899 114.665 15.3358 117.785 12.8198 119.428C10.4863 120.959 8.24015 120.713 7.39089 120.539C5.66063 120.182 4.1923 119.158 3.15255 117.562C1.50166 115.038 1.01751 111.387 1.82708 107.554C4.00974 97.1961 7.08135 88.8306 10.9467 82.6794C14.423 77.1553 18.455 73.663 22.6061 72.5915C23.5426 72.3534 24.4951 72.2343 25.4316 72.2343C23.9077 73.8535 22.7092 75.6472 21.8679 77.5601C20.8837 79.8062 20.3916 82.2349 20.3916 84.7827C20.3916 88.4258 20.598 91.9498 21.0107 95.3071C20.3361 98.1327 19.8202 100.911 19.2725 103.847ZM87.5384 102.458C86.4034 107.332 84.7605 111.76 82.6492 115.642C80.6174 119.372 78.1569 122.586 75.3393 125.198C69.8231 130.293 63.0052 132.984 55.6159 132.984C48.2266 132.984 41.4087 130.293 35.8925 125.198C33.0749 122.594 30.6145 119.38 28.5826 115.642C26.4714 111.768 24.8284 107.332 23.6934 102.458C23.5744 101.966 23.4712 101.466 23.368 100.982C22.3283 96.0056 21.8044 90.5608 21.8044 84.7986C21.8044 80.0999 23.5823 75.9965 27.0825 72.5915C30.3446 69.4247 35.0909 66.9801 40.8532 65.4879V67.242C40.8532 69.639 42.4405 71.8613 45.3296 73.4963C48.0917 75.0599 51.7427 75.925 55.6159 75.925C59.4892 75.925 63.1402 75.0599 65.9022 73.4963C68.7913 71.8613 70.3787 69.639 70.3787 67.242V65.4879C76.1409 66.9721 80.8872 69.4167 84.1493 72.5915C87.6495 75.9885 89.4274 80.0999 89.4274 84.7986C89.4274 90.5608 88.9036 96.0056 87.8638 100.99C87.7606 101.474 87.6495 101.966 87.5384 102.458ZM106.857 117.475C105.817 119.062 104.349 120.094 102.619 120.451C101.761 120.626 99.5232 120.872 97.1898 119.34C94.6737 117.697 92.9197 114.578 91.9672 110.07C91.5148 107.919 91.118 105.8 90.737 103.744C90.4116 101.99 90.1021 100.323 89.7528 98.6406C90.483 94.3071 90.8561 89.6639 90.8561 84.8065C90.8561 82.2587 90.356 79.83 89.3798 77.5839C88.5305 75.6472 87.3241 73.8456 85.7843 72.2185C89.983 72.6629 94.0864 75.5361 97.7374 80.6078C99.8883 83.6001 101.849 87.3146 103.571 91.664C105.397 96.2675 106.944 101.585 108.19 107.467C109 111.3 108.516 114.951 106.857 117.475Z"
    fill="#191B35" />
  <path
    d="M87.5066 55.5747C90.8004 53.7968 92.8482 50.3601 92.8482 46.6059V29.5573C92.8482 25.8032 90.8004 22.3664 87.5066 20.5886C79.149 16.0645 65.5529 15.12 55.6238 15.12C45.6947 15.12 32.0986 16.0724 23.741 20.5886C20.4472 22.3664 18.3994 25.8111 18.3994 29.5573V46.6059C18.3994 50.3601 20.4472 53.7968 23.741 55.5747C32.0986 60.0988 45.6947 61.0433 55.6238 61.0433C65.5529 61.0433 79.141 60.0988 87.5066 55.5747ZM19.8201 46.6059V29.5573C19.8201 26.3349 21.5821 23.3744 24.4156 21.8426C28.8841 19.4218 37.9244 16.5407 55.6238 16.5407C73.3153 16.5407 82.3634 19.4218 86.832 21.8426C89.6655 23.3744 91.4275 26.327 91.4275 29.5573V46.6059C91.4275 49.8284 89.6655 52.7888 86.832 54.3207C82.3634 56.7415 73.3232 59.6226 55.6238 59.6226C37.9323 59.6226 28.8841 56.7415 24.4156 54.3207C21.5821 52.7888 19.8201 49.8284 19.8201 46.6059Z"
    fill="#191B35" />
  <path
    d="M27.4079 84.7748C27.3682 83.489 27.3841 82.1874 27.5508 80.9095C27.5349 81.0127 27.527 81.1159 27.5111 81.2191C27.5746 80.7508 27.6619 80.2825 27.7889 79.8222C27.9 79.4253 28.0429 79.0364 28.2016 78.6634C28.1619 78.7586 28.1222 78.8459 28.0825 78.9412C28.4794 78.0125 28.9953 77.1395 29.6144 76.3378C29.5509 76.4172 29.4953 76.4966 29.4318 76.568C29.9874 75.8537 30.6144 75.1949 31.297 74.6076C31.4954 74.433 31.7097 74.2663 31.9161 74.0996C31.8367 74.1631 31.7574 74.2187 31.6859 74.2822C32.5669 73.5996 33.5273 73.0123 34.5274 72.5281C34.821 72.3852 35.1147 72.2503 35.4163 72.1233C35.3211 72.163 35.2338 72.2027 35.1385 72.2424C35.6782 72.0122 36.2338 71.8138 36.7894 71.6392C37.0751 71.5518 37.3212 71.3693 37.4799 71.1074C37.6228 70.8613 37.6863 70.4962 37.599 70.2184C37.5117 69.9407 37.337 69.6708 37.0672 69.5279C36.7973 69.3851 36.4799 69.3216 36.1782 69.4089C34.8607 69.8216 33.5749 70.3692 32.3764 71.0518C31.2494 71.6947 30.1938 72.4646 29.2413 73.3535C28.3365 74.1949 27.5349 75.1632 26.8841 76.2109C26.5904 76.6791 26.3364 77.1712 26.1142 77.6792C25.8523 78.2824 25.6141 78.8935 25.4554 79.5285C25.2729 80.2825 25.1855 81.0603 25.1221 81.8382C25.0665 82.616 25.0506 83.4017 25.0586 84.1796C25.0586 84.378 25.0665 84.5764 25.0744 84.7748C25.0824 85.0764 25.1935 85.3701 25.4078 85.5844C25.6062 85.7828 25.9316 85.9336 26.2174 85.9178C26.511 85.9019 26.8206 85.8067 27.0269 85.5844C27.273 85.3622 27.4158 85.0844 27.4079 84.7748Z"
    fill="white" />
  <path
    d="M27.8683 89.9101C27.8286 89.6402 27.7889 89.3703 27.7492 89.0925C27.7651 89.1957 27.773 89.2989 27.7889 89.4021C27.781 89.3624 27.781 89.3307 27.773 89.291C27.781 89.1322 27.7492 88.9814 27.6778 88.8465C27.6302 88.7036 27.5508 88.5766 27.4397 88.4735C27.3365 88.3623 27.2095 88.283 27.0666 88.2354C26.9317 88.1639 26.7809 88.1322 26.6222 88.1401C26.519 88.156 26.4158 88.1639 26.3126 88.1798C26.1142 88.2354 25.9475 88.3306 25.8047 88.4735C25.7412 88.5528 25.6856 88.6322 25.6221 88.7036C25.5189 88.8862 25.4634 89.0767 25.4634 89.283C25.5189 89.6958 25.5745 90.1005 25.638 90.5133C25.6697 90.6641 25.7412 90.7911 25.8444 90.9022C25.9237 91.0292 26.0348 91.1244 26.1698 91.1958C26.3047 91.2831 26.4476 91.3228 26.5984 91.3308C26.7492 91.3625 26.9079 91.3546 27.0587 91.307C27.154 91.2673 27.2413 91.2276 27.3365 91.1879C27.5111 91.0847 27.646 90.9498 27.7492 90.7752C27.7889 90.6799 27.8286 90.5926 27.8683 90.4974C27.9238 90.3228 27.9238 90.1164 27.8683 89.9101Z"
    fill="white" />
</svg>
